<svg width="55" height="40" viewBox="0 0 55 40" fill="none" xmlns="http://www.w3.org/2000/svg">
<path d="M29.2661 27.5497C28.3951 15.2761 34.4919 5.20992 39.9791 0.353434C40.1533 0.176833 40.3275 0.0885341 40.5888 0.0885341C40.763 0.0885342 41.0243 0.176833 41.1985 0.353434C41.7211 0.794932 42.0695 1.14814 42.7663 1.94283C43.2889 2.56093 44.1599 3.35562 45.3792 4.68012C45.6405 4.94502 45.7276 5.47482 45.4663 5.82802C42.3308 10.5079 42.2437 13.775 42.3308 15.0112C48.8632 15.3644 54.002 20.839 54.002 27.4614C54.002 34.3488 48.4277 40 41.634 40C35.0145 40 29.7886 34.7903 29.2661 27.5497Z" fill="#67AF93"/>
<path d="M10.7975 0.35319C10.9717 0.176589 11.1459 0.08829 11.4072 0.08829C11.5814 0.08829 11.8427 0.176589 12.0169 0.35319C12.5395 0.794688 12.8879 1.14789 13.5846 1.94259C14.1072 2.56068 14.9782 3.35538 16.1976 4.67988C16.4589 4.94477 16.546 5.47457 16.2847 5.82777C13.1492 10.5077 13.0621 13.863 13.1491 15.0109C19.6815 15.3641 24.8203 20.8387 24.8203 27.5495C24.8203 34.3486 19.246 39.9998 12.4524 39.9998C5.8329 39.9998 0.607001 34.7901 0.0844127 27.5495C-0.786569 15.1875 5.31031 5.20967 10.7975 0.35319Z" fill="#67AF93"/>
<path d="M29.2661 27.5497C29.7886 34.7903 35.0145 40 41.634 40C48.4277 40 54.002 34.3488 54.002 27.4614C54.002 20.7507 48.8632 15.2761 42.3308 14.9229C42.2437 13.6867 42.3308 10.3313 45.4663 5.73973C45.7276 5.38653 45.6405 4.94503 45.3792 4.59183C44.0728 3.26734 43.2889 2.47264 42.7663 1.85454C42.0695 1.05984 41.7211 0.706645 41.1985 0.265147C41.0243 0.0885456 40.8501 0.000246806 40.5888 0.000246783C40.4146 0.000246767 40.1533 0.0885455 39.9791 0.265147C34.4919 5.20992 28.3951 15.1878 29.2661 27.5497ZM40.5888 2.20774C40.8501 2.47264 41.1114 2.73754 41.4598 3.09074C41.9824 3.62054 42.5921 4.23863 43.6373 5.29823C39.8049 11.3026 40.5017 15.541 40.8501 16.1591C41.0243 16.424 41.2856 16.6006 41.634 16.6006C47.4696 16.6889 52.26 21.5454 52.26 27.4614C52.26 33.3775 47.4696 38.234 41.634 38.234C35.9726 38.234 31.4435 33.6424 31.008 27.3731C30.0499 13.5984 38.1501 4.59183 40.5888 2.20774Z" fill="#67AF93"/>
<path d="M0.0844127 27.5495C0.607001 34.7901 5.8329 39.9998 12.4524 39.9998C19.246 39.9998 24.8203 34.3486 24.8203 27.4612C24.8203 20.7504 19.6815 15.2758 13.1491 14.9226C13.0621 13.6865 13.1492 10.3311 16.2847 5.73948C16.546 5.38628 16.4589 4.94479 16.1976 4.59159C14.8911 3.26709 14.1072 2.47239 13.5846 1.8543C12.8879 1.0596 12.5395 0.706401 12.0169 0.264903C11.8427 0.0883015 11.6685 2.66493e-06 11.4072 2.64208e-06C11.233 2.62686e-06 10.9717 0.0883014 10.7975 0.264903C5.31031 5.20968 -0.786569 15.1875 0.0844127 27.5495ZM11.4072 2.2075C11.6685 2.4724 11.9298 2.73729 12.2782 3.17879C12.8008 3.70859 13.4104 4.32669 14.4556 5.38628C10.6233 11.3907 11.3201 15.629 11.6685 16.2471C11.8427 16.512 12.104 16.6886 12.4524 16.6886C18.2879 16.6886 23.0783 21.5451 23.0783 27.4612C23.0783 33.3773 18.2879 38.2338 12.4524 38.2338C6.70388 38.2338 2.26187 33.6422 1.82638 27.3729C1.73928 26.5782 1.73928 25.7835 1.73928 24.9888C1.73928 12.5386 9.05553 4.41499 11.4072 2.2075Z" fill="#67AF93"/>
</svg>
